<?xml version="1.0" encoding="UTF-8" standalone="no"?>
<!DOCTYPE svg PUBLIC "-//W3C//DTD SVG 1.1//EN" "http://www.w3.org/Graphics/SVG/1.1/DTD/svg11.dtd">
<svg width="100%" height="100%" viewBox="0 0 1024 1024" version="1.1" xmlns="http://www.w3.org/2000/svg" xmlns:xlink="http://www.w3.org/1999/xlink" xml:space="preserve" xmlns:serif="http://www.serif.com/" style="fill-rule:evenodd;clip-rule:evenodd;stroke-linejoin:round;stroke-miterlimit:2;">
    <g transform="matrix(1,0,0,1,92.9805,62.8292)">
        <g>
            <g transform="matrix(1.26413,0,0,1.26413,-221.192,-208.773)">
                <path d="M498,789.75C488.15,788.35 482.65,786.05 477.55,781.15C475.75,779.4 473.9,777.9 473.5,777.75C473.1,777.65 471.5,777.2 470,776.8C468.5,776.35 465.55,775.55 463.5,775C458.7,773.6 441,769.15 437.75,768.45C436.4,768.15 434.45,767.7 433.5,767.5C431.15,766.95 421.55,764.95 420,764.65C419.3,764.5 416.5,764 413.75,763.45C398.55,760.55 380.15,757.8 363.75,756C361,755.7 356.95,755.25 354.75,755C345.85,754 335.65,753.15 318,752C300.35,750.85 281.45,750.4 240.5,750.05L197.25,749.7L194.7,748.4C192.05,747 189.65,744.6 188.15,741.85C187.15,740.05 187.1,738.75 186.9,693.6L186.75,668.4L189.25,668.65C190.65,668.8 193.45,669.25 195.6,669.65C198.9,670.35 199.9,670.35 203.1,669.75C207.85,668.9 209.45,668.35 213.45,666.4C216.4,664.95 218.85,662.7 236.35,645.15C254.85,626.55 256,625.5 257.7,625.5L259.5,625.5L259.5,649.9C259.5,672.85 259.55,674.35 260.45,675.8C261.75,677.95 263.95,678.4 275.25,678.75C292.45,679.25 308.85,680.5 324.4,682.5C341.9,684.7 346.65,685.45 362.25,688.5C368.1,689.6 380.75,692.5 386.5,694C387.45,694.25 389.4,694.7 390.75,695.05C398.4,696.85 417.95,703 427.5,706.5C429.85,707.4 432.3,708.25 433,708.5C434.55,708.95 441.55,711.75 444.25,713C445.35,713.45 448.3,714.7 450.75,715.75C458.5,718.95 482.9,731.25 491.4,736.2L499.5,740.9L499.5,346.25L498.3,344.45C497.65,343.5 496.25,342.15 495.2,341.45C474.6,327.9 453.65,317 431.25,308.15C426.05,306.1 421.3,304.25 420.75,304C420.2,303.8 418.95,303.35 418,303C417.05,302.65 415.8,302.2 415.25,301.95C412.65,300.85 395.1,295.3 389.25,293.75C381.7,291.7 378.6,290.9 377,290.5C376.05,290.25 374.8,289.95 374.25,289.8C372.1,289.25 364.65,287.55 363,287.25C362.05,287.05 359.25,286.45 356.75,285.95C354.3,285.4 351,284.75 349.5,284.5C348,284.25 345.4,283.8 343.75,283.5C342.1,283.2 339.3,282.75 337.5,282.5C335.7,282.2 332.8,281.8 331,281.5C315.85,279.1 302.4,278.05 281.7,277.65C263.05,277.3 261.9,277.5 260.1,280.85C259.65,281.65 259.5,294.25 259.5,328.7C259.5,364.8 259.35,375.75 258.9,376.85C258.55,377.6 257.15,380.05 255.8,382.25C253.1,386.65 248.95,394.85 246.6,400.25C244.35,405.4 240.15,418.4 239.35,422.5C239.25,423.2 238.8,425.45 238.35,427.5C236.6,436 236.25,440 236.25,451.25C236.25,461.9 236.7,467.9 238,473.75C240.25,483.75 242.2,490.4 245,497.5C246.7,501.8 251.45,511.05 253,513C255.95,516.8 256.5,518.05 256.5,521.65C256.5,523.55 256.25,525.55 255.95,526.1C255.65,526.7 240.65,541.85 222.6,559.85C193.4,588.95 189.7,592.5 188.3,592.5L186.75,592.5L186.9,504.4C186.95,455.9 187.05,394.2 187.15,367.25L187.25,318.25L188.45,316C189.85,313.4 191.8,311.45 194.95,309.6L197.25,308.25L215.4,308.1L233.5,307.95L233.5,286.1C233.5,263 233.7,261 235.9,257.4C238.85,252.6 242.35,251.8 263.4,250.95C289.75,249.85 317,251.7 347.25,256.55C354.4,257.7 356.7,258.1 363.75,259.5C395.1,265.6 434,278.2 461.9,291.3C475.3,297.65 482.2,301.2 493.6,307.8C497.25,309.9 501,312.05 501.85,312.55C502.75,313.05 505.25,314.65 507.35,316.05C509.85,317.75 511.8,318.65 512.75,318.7C514.1,318.7 517.55,316.75 527.1,310.7C528.15,310.05 529.1,309.5 529.2,309.5C529.35,309.5 530.55,308.85 531.85,308.1C537.9,304.55 558.45,294 565.15,291.05C570.6,288.6 571.85,288.05 574,287.1C585.4,282 612,272.45 624.75,268.95C625.85,268.65 627.3,268.2 628,268C628.7,267.8 630.25,267.35 631.5,267C632.75,266.65 634.3,266.2 635,266C637.1,265.3 656.5,260.65 661,259.75C666.55,258.6 668.25,258.3 674.25,257.3C677,256.85 680.5,256.25 682,256C695.35,253.7 709.3,252.25 729.25,251C748.5,249.8 780,251.05 785,253.15C785.7,253.45 787.05,254.5 788.1,255.5C791.4,258.8 791.5,259.75 791.5,285.3L791.5,307.95L809.15,308.1L826.75,308.25L829.25,309.55C831.95,311 833.85,312.9 835.65,315.9L836.75,317.75L837,359.25C837.6,443.65 837.55,734.65 836.95,737.75C836.05,742.8 833.85,745.8 829.25,748.35L826.75,749.7L782.05,750.05C734.05,750.45 719.8,750.9 692.25,753C675.8,754.3 667.85,755.1 652.4,757C641.9,758.35 640.05,758.55 637.5,759C636,759.25 633.2,759.7 631.25,760C629.35,760.3 625.75,760.9 623.25,761.3C620.8,761.7 617.5,762.25 616,762.5C614.5,762.75 611.9,763.2 610.25,763.5C608.6,763.85 606.6,764.2 605.75,764.3C604.3,764.55 602.95,764.8 597.9,765.95C596.55,766.25 594.45,766.75 593.15,767.05C591.8,767.35 589.75,767.8 588.5,768.05C584.4,769 581.75,769.6 580.25,770.05C579.45,770.3 576.75,770.95 574.25,771.55C568.05,773 563.8,774.2 556.5,776.55C550.95,778.35 549.95,778.85 547.5,781.1C544.7,783.65 538.2,787.1 535,787.75C534.05,787.95 532.35,788.3 531.25,788.55C522.95,790.4 506.5,791 498,789.75ZM532.45,736.35C538.5,732.7 542.05,730.75 551.25,726C557,723 561.2,721 571.5,716.35C575.9,714.35 591.35,708.25 596.25,706.5C603.75,703.9 613.55,700.65 617.5,699.5C619.55,698.9 621.8,698.2 622.5,698C623.75,697.6 624.75,697.35 631.5,695.5C633.55,694.95 636.05,694.25 637,694C637.95,693.7 640.8,693.05 643.25,692.5C645.75,691.9 648.75,691.25 650,690.95C655.1,689.75 659.9,688.8 667,687.55C692.75,682.95 716.3,680.5 749.25,678.95C762.65,678.3 763.6,678.1 764.6,675.55C765.4,673.55 765.15,282.65 764.35,281.05C764,280.4 763.1,279.35 762.35,278.8C761.1,277.85 760.1,277.75 752.85,277.55C730.05,277.05 698.6,280.35 668.75,286.3C656.45,288.75 656.75,288.7 647.75,291C636.3,293.95 633.2,294.8 629.25,296C627.35,296.6 625.1,297.25 624.25,297.5C621.75,298.2 614.05,300.8 608.25,302.9C595.35,307.6 593.6,308.25 586.15,311.55C584.95,312.1 583.9,312.5 583.75,312.5C583.55,312.5 582.3,313.05 573.9,316.95C563.95,321.5 549,329.45 544.4,332.6C543.65,333.1 542.9,333.5 542.75,333.5C542.5,333.5 540.45,334.75 532.6,339.9C530.3,341.4 528,343.35 527.45,344.2C526.5,345.7 526.5,349.85 526.5,542.65C526.5,650.9 526.65,739.5 526.8,739.5C526.95,739.5 529.5,738.05 532.45,736.35Z" style="fill:white;fill-rule:nonzero;"/>
                <path d="M556.1,664.6C553.6,663.25 552.5,661.05 552.5,657.3C552.5,650.65 553.75,649.7 571.25,643.25C574,642.25 577.4,641 578.75,640.5C583.2,638.85 589.65,636.6 594.75,635C604.4,631.9 605.25,631.65 607.5,631C608.75,630.65 610.3,630.2 611,630C617.6,627.95 623.8,626.5 625.75,626.5C627.5,626.5 631.25,625.85 637.5,624.5C638.45,624.3 640.15,623.8 641.25,623.35C643.5,622.5 646.3,621.8 651,621C652.8,620.7 655.15,620.25 656.25,620C657.35,619.8 659.85,619.35 661.75,619.05C663.7,618.7 666.5,618.25 668,618C681.05,615.75 701.7,612.95 719.55,610.95C727.15,610.1 729.7,610.85 731,614.2C731.75,616.2 731.65,622.8 730.8,624.4C729.25,627.4 728.25,627.75 717.75,628.95C711.5,629.65 708.7,630.05 693,632.25C690.1,632.65 683.7,633.65 678.75,634.5C673.8,635.35 668.5,636.25 667,636.5C664.2,636.9 657.25,638.25 648.5,640.05C643.15,641.15 631.05,644.05 623.65,646.05C621.65,646.55 618.35,647.45 616.4,647.95C607.9,650.2 606.7,650.55 605.5,650.95C604.8,651.2 602.55,651.9 600.5,652.5C591.75,655.05 576.55,660.35 568.3,663.7C563.1,665.8 558.95,666.1 556.1,664.6Z" style="fill:white;fill-rule:nonzero;"/>
                <path d="M463,652.4C462.05,651.8 458.8,650.25 455.75,648.9C452.75,647.55 449.6,646.15 448.75,645.75C447.1,645 438.2,641.55 430,638.4C427.1,637.3 424.3,636.2 423.75,635.95C423.2,635.75 421.05,635 419,634.3C416.95,633.65 413,632.3 410.25,631.35C407.5,630.35 402.2,628.65 398.5,627.5C394.8,626.3 390.5,625 389,624.5C382.45,622.45 376.4,620.65 369.25,618.75C367.6,618.3 365.45,617.7 364.5,617.4C363.55,617.15 361.95,616.75 361,616.5C360.05,616.25 356.55,615.35 353.25,614.5C349.95,613.65 346.45,612.75 345.5,612.5C344.55,612.25 343.2,611.95 342.5,611.75C341.8,611.6 340.25,611.2 339,610.95C337.75,610.65 335.95,610.25 335,610C334.05,609.75 331.1,609.05 328.5,608.5C317.75,606.1 316,605.4 315.1,602.8C314.1,600.15 314.35,594.5 315.5,592.65C318.05,588.4 319.7,588.45 343,593.5C349,594.8 373.25,600.9 378.75,602.5C380.8,603.1 383.15,603.75 386.75,604.7C388.4,605.15 390.3,605.75 391,606C391.7,606.25 394.6,607.15 397.5,608C400.4,608.9 407.05,611.05 412.25,612.75C420.8,615.6 424.25,616.85 432.9,620.05C434.3,620.55 436.8,621.45 438.4,622.05C439.95,622.6 441.95,623.35 442.75,623.7C443.6,624.05 445.4,624.8 446.75,625.35C460.5,631 459.65,630.6 467.25,634C473.7,636.85 474.85,637.45 475.9,638.6C478.55,641.45 478.8,648.25 476.35,651.1C474.6,653.1 473.35,653.5 468.9,653.5C465.5,653.5 464.45,653.3 463,652.4Z" style="fill:white;fill-rule:nonzero;"/>
            </g>
            <g transform="matrix(1.26413,0,0,1.26413,-221.192,-208.773)">
                <path d="M649.3,573C643.45,572.05 642.7,570.45 643.2,559.75C643.4,555.9 643.55,540.75 643.6,526.15L643.6,499.5L645.3,498C646.25,497.2 647.4,496.45 647.9,496.45C648.35,496.4 666.05,496.4 687.25,496.5C713.4,496.55 726.1,496.8 727,497.15C729.25,498.1 732.5,501.05 733.5,503C735.95,507.8 736,512.75 733.6,515.6L732.25,517.2L732.45,542.05C732.6,568.85 732.55,569.7 730.1,571.45C726.35,574.1 712.7,574.25 710.1,571.65C709.75,571.3 709.3,569.8 709.15,568.35L708.9,565.65L693.3,565.05C684.75,564.7 675.3,564.5 672.25,564.6L666.75,564.75L666.5,567C666.1,570.1 665.25,571.45 663.1,572.35C660.9,573.3 653.45,573.65 649.3,573ZM708.5,543.5L708.5,518.5L688.3,518.5C669.45,518.5 668.05,518.55 667.8,519.4C667.7,519.85 667.4,525.5 667.2,531.9L666.85,543.5L708.5,543.5Z" style="fill:white;fill-rule:nonzero;"/>
                <path d="M565.55,571.7C564.6,571.3 563.6,570.6 563.25,570.15C562.8,569.55 562.6,561.55 562.35,539.55C562.05,506.75 562.05,507.25 565.05,506C566.15,505.5 569.8,505.45 579.9,505.75C587.25,505.9 600.15,506.25 608.6,506.4C625.9,506.8 625.25,506.65 628.2,511C630.2,513.95 630.65,519.1 629.05,521.65C628,523.35 628,523.55 628.3,543.55C628.65,566.95 628.85,565.8 623.65,568.3C621.05,569.55 620.2,569.7 615.35,569.7C610,569.75 609.9,569.75 608.7,568.35C608.05,567.6 607.5,566.3 607.5,565.55C607.5,564.2 607.4,564.15 604.15,563.85C599.8,563.4 594.35,563.4 589.15,563.85L585,564.15L585,566.35C585,569.35 583.8,571.25 581.5,571.95C578.7,572.8 567.65,572.65 565.55,571.7ZM607,536.9C607,533.25 606.85,529.35 606.65,528.3L606.35,526.35L596.2,526.65C590.65,526.75 585.85,527.05 585.55,527.25C585.2,527.45 585,530.4 585,535.55L585,543.5L607,543.5L607,536.9Z" style="fill:white;fill-rule:nonzero;"/>
                <path d="M565.75,495.9C562.85,494.25 561.8,491.35 561.75,485C561.75,479.7 562.8,476.75 565.05,475.65C566.8,474.8 623.8,474.55 625.35,475.4C627.25,476.45 627.7,478 627.9,484.35C628.15,491.7 627.9,493.5 626.15,495.2L624.85,496.5L595.8,496.5C575,496.45 566.45,496.3 565.75,495.9Z" style="fill:white;fill-rule:nonzero;"/>
                <path d="M634.6,484.8C632.65,483.8 632.5,483.05 632.5,473.5C632.5,464.7 632.55,464.1 633.5,463.25C634.4,462.4 635.8,462.25 644.45,462C649.85,461.8 654.55,461.55 654.85,461.35C655.15,461.15 655.5,460.2 655.65,459.15C655.8,458.1 656.2,455.95 656.45,454.4C657.8,447.2 658.1,445.55 658.5,442.7C658.75,441 659.1,439.35 659.25,438.95C659.45,438.35 658.25,438.25 651.7,438.25L643.9,438.25L642.5,436.65C640.4,434.3 639.35,430.25 639.6,425.35C639.95,417.15 641.05,416.5 654.1,416.5C659.25,416.5 663.55,416.3 663.7,416.1C664.1,415.4 666,400.4 665.7,400.05C665.6,399.95 660,399.9 653.25,399.95C645,400 640.65,399.85 639.95,399.45C637.85,398.35 636.85,394.8 636.6,387.75L636.4,381.25L638,379.4L639.55,377.5L735.45,377.5L736.5,378.95C738.1,381.2 738.9,389.7 737.95,394C737.55,395.8 736.75,397.8 736.15,398.5L735.1,399.75L712.35,399.55L689.65,399.4L689.3,401.1C689.15,402 688.75,405.1 688.5,408C688.25,410.9 687.85,413.95 687.7,414.85L687.4,416.5L705.05,416.5C722.25,416.5 722.8,416.55 724.5,417.55C728.65,420.1 730.5,423.8 730.5,429.65C730.5,433.45 730.4,433.9 729.05,435.5C727.75,437.15 727.55,437.8 727,443.7C726.65,447.7 726.55,452.35 726.75,456.05C726.95,459.35 727.15,462 727.2,462C727.2,462 730.1,462.25 733.55,462.5C740.5,463 743.2,463.85 744.75,465.9C745.65,467.1 745.75,468.05 745.75,475.05C745.75,485.05 746,484.7 738.05,484.85C720.65,485.25 635.3,485.2 634.6,484.8ZM703.55,455.25C703.75,451.4 704.05,445.85 704.25,442.9L704.65,437.5L696.15,437.5C684.45,437.5 684.75,437.4 684.05,441.05C683.4,444.55 682.75,448.5 682.05,453C681.75,454.8 681.4,457.15 681.25,458.25C681.05,459.35 680.8,460.75 680.65,461.4L680.4,462.5L691.8,462.4L703.25,462.25L703.55,455.25Z" style="fill:white;fill-rule:nonzero;"/>
                <path d="M565.55,465.45C562.55,463.65 562.25,462.55 562.25,454.2C562.25,447.2 562.35,446.45 563.3,445.15L564.35,443.75L594.85,443.6L625.3,443.5L626.5,444.75C627.6,445.95 627.75,446.65 628.2,453.15C628.7,461.35 628.25,463.95 626.15,465.4C624.9,466.2 622.5,466.25 595.9,466.3C568.95,466.35 566.9,466.3 565.55,465.45Z" style="fill:white;fill-rule:nonzero;"/>
                <path d="M553.7,434.8C551.7,433.35 551.35,431.55 551.6,422.6C551.75,415.6 551.9,413.95 552.65,412.8L553.55,411.45L592.4,411.6C627.85,411.75 631.4,411.85 633.15,412.6C635.65,413.75 636.55,416 636.9,421.8C637.2,428.15 636.75,431.45 635.2,433.25L634,434.65L610.1,434.75C597,434.8 579.15,435 570.5,435.2C556.65,435.55 554.6,435.5 553.7,434.8Z" style="fill:white;fill-rule:nonzero;"/>
                <path d="M564.5,401.85C562.15,400.05 562,399.2 562,389.6L562,380.4L563.45,378.95L564.95,377.5L582.85,377.75C617.15,378.25 623.45,378.45 625.25,379.2C627.95,380.35 628.5,382 628.5,389.3C628.5,396.35 627.95,398.9 626,401L624.65,402.45L594.95,402.45C572.55,402.45 565.05,402.3 564.5,401.85Z" style="fill:white;fill-rule:nonzero;"/>
            </g>
            <g transform="matrix(1.26413,0,0,1.26413,-221.192,-208.773)">
                <path d="M193.05,655.9C189.15,655.35 185.4,653.6 182.15,650.75C174.75,644.3 173.3,632.1 178.75,622.7C179.65,621.2 189.2,611.15 203.75,596.5C225.05,575 230.6,569.35 244.75,554.75C247.15,552.3 250.3,548.75 251.8,546.9C258.2,539 262.05,536.35 266.75,536.55C269.45,536.7 269.65,536.6 271.95,534.45C273.25,533.25 275.75,530.5 277.45,528.35L280.6,524.45L279.45,523.1C278.8,522.35 278.15,521.65 278,521.5C277.25,520.85 272.95,514.85 270.8,511.55C267.6,506.65 261.95,494.95 260.05,489.25C258.3,484 256.85,478.5 256.05,474.15C255.75,472.4 255.2,469.6 254.9,467.9C254,463.6 254.05,439.2 254.9,433.5C255.25,431.15 255.75,428.45 256,427.5C256.2,426.55 256.7,424.5 257,423C257.35,421.5 257.8,419.6 258.05,418.75C259.6,413.5 261.7,407.65 262.15,407.15C262.35,407 262.5,406.5 262.5,406.1C262.5,403.5 273.8,384 277.6,379.9C277.95,379.55 279.15,378.15 280.25,376.75C287.85,367.25 301.35,356.75 314.1,350.45C317.5,348.8 320.6,347.25 321,347.05C321.9,346.6 334.5,342.65 337,342C339.5,341.4 343.6,340.65 348.25,339.95C353.4,339.2 374.55,339.2 379.75,339.95C393.1,341.9 403.85,345.05 413.9,349.85C418.9,352.2 427.8,357.2 428.5,358C428.65,358.15 430.2,359.35 432,360.6C438.45,365.2 446,372.6 453.45,381.75C455.65,384.5 460.6,392.25 462.85,396.5C466.85,404.15 468.8,409.1 471.95,419.25C472.75,421.75 474.4,430.45 475,435.5C476.3,445.55 475.15,468.9 473,478C471.6,483.7 468.85,492.6 468,494.1C467.7,494.6 467.5,495.25 467.5,495.55C467.5,496.85 458.95,513.1 456.9,515.75C456.65,516.05 455.4,517.7 454.05,519.5C450.25,524.65 444.45,530.75 438.05,536.4C436.15,538.05 425.75,545 422.25,546.95C405.7,556.1 395.05,559.45 374.5,562C365.7,563.05 350.6,562.45 340,560.55C331.4,559 317.8,554.05 312.5,550.5C311.8,550.05 310.2,549.1 308.9,548.35L306.6,547L303.7,549.65C302.15,551.05 299.05,554.05 296.8,556.25L292.75,560.25L292.75,564.5C292.75,568.2 292.6,568.95 291.5,570.5C290.85,571.45 282.05,580.45 272,590.55C261.95,600.6 246.9,615.9 238.5,624.55C209.6,654.35 209.05,654.8 202,655.95C198.3,656.55 197.5,656.55 193.05,655.9ZM375.05,532.75C377.65,532.35 380.3,531.9 381,531.75C381.7,531.55 383.25,531.2 384.5,530.9C392.35,529.05 402.05,524.65 408.3,520.2C423.25,509.5 435.2,494.9 441.05,480.15C441.3,479.5 441.7,478.5 441.95,477.9C444,472.7 445.9,464.95 446.8,457.75C448.7,442.8 444,424.25 434.1,407.5C431,402.2 426.15,395.7 422.9,392.5C412.85,382.5 398.25,374.5 384,371.1C382.75,370.8 381.2,370.45 380.5,370.25C371.05,368.05 357,367.9 348.15,370C346.95,370.3 344.95,370.75 343.65,371.05C337.6,372.45 329.6,375.85 323.25,379.65C321.35,380.8 319.55,381.9 319.25,382.15C319,382.35 317.2,383.7 315.25,385.1C304.05,393.35 293.7,407.5 289,421C288.65,421.95 288.2,423.2 287.95,423.75C287.3,425.25 286.05,430.1 284.65,436.75C283.55,441.95 283.35,444.05 283.3,452.75C283.3,459.3 283.5,463.7 283.9,465.5C285.35,471.65 285.7,472.9 286.85,476.45C288.35,481 292.65,489.85 295.5,494.05C301.45,502.8 310.5,512.35 319.05,518.65C321.9,520.8 323.55,521.85 328.1,524.25C337.2,529 343.9,531.15 355.5,532.95C360,533.65 370,533.55 375.05,532.75Z" style="fill:white;fill-rule:nonzero;"/>
            </g>
        </g>
    </g>
</svg>
